<svg id="Capa_1" enable-background="new 0 0 512 512" height="512" viewBox="0 0 512 512" width="512" xmlns="http://www.w3.org/2000/svg"><g><path d="m407.271 119.471h-119.532v-104.489c0-8.274-6.716-14.982-15-14.982h-33.478c-8.284 0-15 6.708-15 14.982v104.489h-119.532c-8.284 0-15 6.708-15 14.982v33.438c0 8.274 6.716 14.982 15 14.982h119.532v314.145c0 8.274 6.716 14.982 15 14.982h33.478c8.284 0 15-6.708 15-14.982v-314.145h119.532c8.284 0 15-6.708 15-14.982v-33.438c0-8.274-6.716-14.982-15-14.982z"/></g></svg>